<svg width="24" height="24" viewBox="0 0 24 24" fill="none" xmlns="http://www.w3.org/2000/svg">
<path d="M14.05 6.0001C15.0335 6.19403 15.936 6.67912 16.6403 7.39241C17.3447 8.10569 17.8184 9.01423 18 10.0001L14.05 6.0001ZM14.05 2.0001C16.0882 2.21487 17.9921 3.11889 19.4468 4.56268C20.9015 6.00646 21.8199 7.90351 22.05 9.9401L14.05 2.0001ZM22.05 16.9401V19.9401C22.05 20.4705 21.8392 20.9792 21.4642 21.3543C21.0891 21.7294 20.5804 21.9401 20.05 21.9401H19.86C16.7828 21.6057 13.827 20.5542 11.23 18.8701C8.8142 17.3342 6.76581 15.2859 5.22996 12.8701C3.52388 10.2585 2.45833 7.28114 2.11996 4.1801C2.09519 3.91802 2.12239 3.65363 2.20002 3.4021C2.27765 3.15056 2.40417 2.91682 2.57233 2.71429C2.74049 2.51176 2.94698 2.34441 3.17995 2.22185C3.41292 2.0993 3.6678 2.02394 3.92996 2.0001H7.10996C7.59527 1.99532 8.06575 2.16718 8.43372 2.48363C8.80169 2.80008 9.04204 3.23954 9.10996 3.7201C9.23791 4.67991 9.4727 5.62242 9.80996 6.5301C9.9445 6.88802 9.97362 7.27701 9.89387 7.65098C9.81411 8.02494 9.62882 8.36821 9.35996 8.6401L8.08996 9.9101C9.51352 12.4136 11.5864 14.4865 14.09 15.9101L15.36 14.6401C15.6318 14.3712 15.9751 14.1859 16.3491 14.1062C16.723 14.0264 17.112 14.0556 17.47 14.1901C18.3776 14.5274 19.3201 14.7621 20.28 14.8901C20.7657 14.9586 21.2094 15.2033 21.5265 15.5776C21.8436 15.9519 22.0121 16.4297 22 16.9201L22.05 16.9401Z" stroke="#141414" stroke-width="2" stroke-linecap="round" stroke-linejoin="round"/>
</svg>
